<svg width="512" height="512" viewBox="0 0 512 512" fill="none" xmlns="http://www.w3.org/2000/svg">
<rect width="512" height="512" fill="#12284C"/>
<path d="M224 227.228C246 224.244 267 222.255 289 219.271C289 216.287 289 214.298 289 212.309C289 155.617 289 136.72 288 80.0283C288 77.0445 288 74.0608 288 71.077C289 66.104 292 61.1311 298 60.1365C316 56.1581 334 53.1743 352 50.1906C357 49.196 360 52.1797 361 57.1527C362 60.1365 362 63.1203 362 66.104C363 188.439 364 310.773 364 434.103C364 436.092 364 438.081 364 440.07C363 448.027 360 451.011 352 452.005C335 452.005 319 452.005 302 452.005C293 452.005 289 447.032 289 439.076C289 409.238 289 379.4 288 349.563C288 341.606 288 296.849 288 288.892C267 290.882 246 292.871 224 294.86C224 296.849 224 298.838 224 300.828C224 332.654 224 401.281 224 433.108C224 435.097 224 437.087 224 439.076C224 450.016 220 453 208 453C194 453 179 453 165 453C154 453 150 450.016 149 440.07C149 438.081 149 436.092 149 435.097C149 327.681 149 220.266 149 112.85C149 96.9363 151 93.9526 171 88.9796C182 85.9958 193 84.0067 205 81.0229C221 78.0391 224 80.0283 224 93.9526C224 148.655 224 167.552 224 222.255C224 222.255 224 224.244 224 227.228Z" fill="white"/>
</svg>
